<?xml version="1.0" encoding="UTF-8" standalone="no"?>
<svg
   xmlns:dc="http://purl.org/dc/elements/1.1/"
   xmlns:cc="http://creativecommons.org/ns#"
   xmlns:rdf="http://www.w3.org/1999/02/22-rdf-syntax-ns#"
   xmlns:svg="http://www.w3.org/2000/svg"
   xmlns="http://www.w3.org/2000/svg"
   xmlns:sodipodi="http://sodipodi.sourceforge.net/DTD/sodipodi-0.dtd"
   xmlns:inkscape="http://www.inkscape.org/namespaces/inkscape"
   width="24"
   height="24"
   viewBox="0 0 24 24"
   fill="none"
   stroke="currentColor"
   stroke-width="2"
   stroke-linecap="round"
   stroke-linejoin="round"
   class="feather feather-arrow-left"
   version="1.1"
   id="svg6"
   sodipodi:docname="arrow-left.svg"
   inkscape:version="1.0.2-2 (e86c870879, 2021-01-15)">
  <metadata
     id="metadata12">
    <rdf:RDF>
      <cc:Work
         rdf:about="">
        <dc:format>image/svg+xml</dc:format>
        <dc:type
           rdf:resource="http://purl.org/dc/dcmitype/StillImage" />
      </cc:Work>
    </rdf:RDF>
  </metadata>
  <defs
     id="defs10" />
  <sodipodi:namedview
     pagecolor="#ffffff"
     bordercolor="#666666"
     borderopacity="1"
     objecttolerance="10"
     gridtolerance="10"
     guidetolerance="10"
     inkscape:pageopacity="0"
     inkscape:pageshadow="2"
     inkscape:window-width="1920"
     inkscape:window-height="1017"
     id="namedview8"
     showgrid="false"
     inkscape:zoom="35.416667"
     inkscape:cx="12"
     inkscape:cy="12"
     inkscape:window-x="-8"
     inkscape:window-y="-8"
     inkscape:window-maximized="1"
     inkscape:current-layer="svg6" />
  <line
     x1="19"
     y1="12"
     x2="5"
     y2="12"
     id="line2" />
  <polyline
     points="12 19 5 12 12 5"
     id="polyline4" />
  <path
     style="fill:#ffffff;stroke:#000000;stroke-width:0.0816378;paint-order:markers fill stroke"
     d="m 11.712121,19.936129 c -0.08845,-0.02828 -0.221863,-0.0967 -0.296471,-0.152046 C 11.341042,19.728741 9.6778402,18.078564 7.7196452,16.117024 3.7168966,12.107439 4.0261279,12.452128 4.0261279,12 c 0,-0.452128 -0.3092313,-0.107439 3.6935173,-4.1170244 1.958195,-1.96154 3.6212998,-3.6116447 3.6957878,-3.6668995 0.149555,-0.1109394 0.419112,-0.2066643 0.581958,-0.2066643 0.554562,0 1.037295,0.5345158 0.979984,1.0851078 -0.03817,0.3667255 0.07719,0.2385405 -2.879513,3.199598 L 7.384213,11.011765 h 5.860416 c 6.503182,0 6.01493,-0.0145 6.313335,0.187472 0.244092,0.165211 0.432624,0.514172 0.432624,0.800763 0,0.286591 -0.188532,0.635552 -0.432624,0.800763 -0.298405,0.201971 0.189847,0.187472 -6.313335,0.187472 H 7.384213 l 2.713649,2.717647 c 2.956703,2.961058 2.841341,2.832873 2.879513,3.199598 0.04755,0.456821 -0.266153,0.909486 -0.721323,1.040848 -0.196577,0.05673 -0.343206,0.05398 -0.543931,-0.0102 z"
     id="path837" />
</svg>
