<?xml version="1.0" encoding="UTF-8" standalone="no"?>
<svg
   xmlns:dc="http://purl.org/dc/elements/1.1/"
   xmlns:cc="http://creativecommons.org/ns#"
   xmlns:rdf="http://www.w3.org/1999/02/22-rdf-syntax-ns#"
   xmlns:svg="http://www.w3.org/2000/svg"
   xmlns="http://www.w3.org/2000/svg"
   xmlns:sodipodi="http://sodipodi.sourceforge.net/DTD/sodipodi-0.dtd"
   xmlns:inkscape="http://www.inkscape.org/namespaces/inkscape"
   width="24"
   height="24"
   viewBox="0 0 24 24"
   fill="none"
   stroke="currentColor"
   stroke-width="2"
   stroke-linecap="round"
   stroke-linejoin="round"
   class="feather feather-play"
   version="1.1"
   id="svg2047"
   sodipodi:docname="play.svg"
   inkscape:version="1.0.2-2 (e86c870879, 2021-01-15)">
  <metadata
     id="metadata2053">
    <rdf:RDF>
      <cc:Work
         rdf:about="">
        <dc:format>image/svg+xml</dc:format>
        <dc:type
           rdf:resource="http://purl.org/dc/dcmitype/StillImage" />
      </cc:Work>
    </rdf:RDF>
  </metadata>
  <defs
     id="defs2051" />
  <sodipodi:namedview
     pagecolor="#ffffff"
     bordercolor="#666666"
     borderopacity="1"
     objecttolerance="10"
     gridtolerance="10"
     guidetolerance="10"
     inkscape:pageopacity="0"
     inkscape:pageshadow="2"
     inkscape:window-width="1920"
     inkscape:window-height="1017"
     id="namedview2049"
     showgrid="false"
     inkscape:zoom="35.416667"
     inkscape:cx="12"
     inkscape:cy="12"
     inkscape:window-x="-8"
     inkscape:window-y="-8"
     inkscape:window-maximized="1"
     inkscape:current-layer="svg2047" />
  <polygon
     points="5 3 19 12 5 21 5 3"
     id="polygon2045" />
  <path
     style="fill:#ffffff;stroke:#000000;stroke-width:0.0816378;paint-order:markers fill stroke"
     d="M 4.8097058,21.967059 C 4.5196485,21.906783 4.234291,21.675133 4.1048336,21.394851 L 4.0235294,21.218824 V 12 2.7811765 L 4.1048336,2.6051488 C 4.2036227,2.3912655 4.3997865,2.1990987 4.6242121,2.0963533 4.8490796,1.9934055 5.1441196,1.9923621 5.3649248,2.0937336 5.6127232,2.2074976 19.593363,11.207357 19.711681,11.329276 c 0.21037,0.216772 0.314989,0.554281 0.257206,0.829765 -0.04445,0.211919 -0.128432,0.37899 -0.257206,0.511683 -0.115612,0.119131 -14.0993136,9.122553 -14.3328575,9.228227 -0.1643326,0.07436 -0.4021107,0.102813 -0.5691177,0.06811 z M 11.614579,15.581074 C 14.667687,13.619248 17.165684,12.007765 17.165684,12 17.165684,11.984196 6.0856525,4.8604789 6.0246786,4.8370811 5.9918365,4.8244783 5.9858824,5.9237879 5.9858824,12 c 0,6.076212 0.00595,7.175522 0.038796,7.162919 0.021338,-0.0082 2.5367934,-1.620018 5.5899006,-3.581845 z"
     id="path2616" />
</svg>
