<?xml version="1.0" encoding="UTF-8" standalone="no"?>
<svg
   xmlns:dc="http://purl.org/dc/elements/1.1/"
   xmlns:cc="http://creativecommons.org/ns#"
   xmlns:rdf="http://www.w3.org/1999/02/22-rdf-syntax-ns#"
   xmlns:svg="http://www.w3.org/2000/svg"
   xmlns="http://www.w3.org/2000/svg"
   xmlns:sodipodi="http://sodipodi.sourceforge.net/DTD/sodipodi-0.dtd"
   xmlns:inkscape="http://www.inkscape.org/namespaces/inkscape"
   width="24"
   height="24"
   viewBox="0 0 24 24"
   fill="none"
   stroke="currentColor"
   stroke-width="2"
   stroke-linecap="round"
   stroke-linejoin="round"
   class="feather feather-rotate-cw"
   version="1.1"
   id="svg1464"
   sodipodi:docname="rotate-cw.svg"
   inkscape:version="1.0.2-2 (e86c870879, 2021-01-15)">
  <metadata
     id="metadata1470">
    <rdf:RDF>
      <cc:Work
         rdf:about="">
        <dc:format>image/svg+xml</dc:format>
        <dc:type
           rdf:resource="http://purl.org/dc/dcmitype/StillImage" />
      </cc:Work>
    </rdf:RDF>
  </metadata>
  <defs
     id="defs1468" />
  <sodipodi:namedview
     pagecolor="#ffffff"
     bordercolor="#666666"
     borderopacity="1"
     objecttolerance="10"
     gridtolerance="10"
     guidetolerance="10"
     inkscape:pageopacity="0"
     inkscape:pageshadow="2"
     inkscape:window-width="1920"
     inkscape:window-height="1017"
     id="namedview1466"
     showgrid="false"
     inkscape:zoom="35.416667"
     inkscape:cx="12"
     inkscape:cy="12"
     inkscape:window-x="-8"
     inkscape:window-y="-8"
     inkscape:window-maximized="1"
     inkscape:current-layer="svg1464" />
  <polyline
     points="23 4 23 10 17 10"
     id="polyline1460" />
  <path
     d="M20.49 15a9 9 0 1 1-2.12-9.36L23 10"
     id="path1462" />
  <path
     style="fill:#ffffff;stroke:#000000;stroke-width:0.0816378;paint-order:markers fill stroke"
     d="M 11.350588,21.963498 C 9.5988991,21.845949 7.8816037,21.25841 6.4303248,20.280125 5.6915777,19.782148 4.7525539,18.919896 4.2239285,18.254118 3.0054403,16.719491 2.2794211,14.951621 2.0740413,13.019104 2.0236328,12.544786 2.0171592,11.565949 2.0612822,11.089883 2.2458521,9.0984672 3.0350302,7.1945783 4.3290828,5.6188235 4.6057046,5.2819841 5.3802206,4.5186112 5.7243301,4.2436502 8.0636824,2.3743881 11.017938,1.6396873 13.92,2.2054498 c 1.608805,0.3136396 3.2008,1.0671552 4.434063,2.0987098 0.149661,0.1251828 1.033339,0.9443953 1.96373,1.8204721 l 1.691619,1.592867 0.01412,-1.9881611 0.01412,-1.9881611 0.07799,-0.1588105 c 0.09202,-0.1873888 0.308082,-0.3993829 0.494699,-0.4853968 0.20312,-0.09362 0.58563,-0.088023 0.796722,0.011657 0.321242,0.1516955 0.516564,0.4306611 0.566689,0.8093662 0.01867,0.1410289 0.02594,1.2944721 0.02053,3.2537722 -0.0081,2.9148524 -0.01053,3.0403364 -0.06236,3.1623534 -0.08234,0.193876 -0.229995,0.381685 -0.376225,0.478544 -0.269844,0.178737 -0.106299,0.170867 -3.550987,0.170867 -3.450309,0 -3.280509,0.0083 -3.555056,-0.173562 -0.279383,-0.185056 -0.466219,-0.575064 -0.428644,-0.8947686 0.04096,-0.3484766 0.272167,-0.6663171 0.592348,-0.8142881 l 0.172528,-0.079734 1.856747,-0.014118 1.856747,-0.014118 -1.6591,-1.5595929 C 17.927771,6.575572 17.073176,5.7892876 16.941176,5.6860495 14.301536,3.6215682 10.614612,3.4268019 7.7632856,5.2012162 5.7093013,6.4794356 4.364944,8.5908291 4.0475322,11.03703 c -0.062594,0.482394 -0.062198,1.446492 7.948e-4,1.932388 0.3084505,2.379258 1.5482059,4.384615 3.5328495,5.714535 1.7614695,1.18037 3.9868875,1.599091 6.1130135,1.150186 1.168862,-0.246791 2.365935,-0.815226 3.331692,-1.582069 0.3386,-0.268859 1.047858,-0.990532 1.302218,-1.325011 0.482871,-0.634968 0.833757,-1.251328 1.128048,-1.981508 0.09214,-0.228622 0.201255,-0.464336 0.24247,-0.52381 0.202525,-0.292244 0.61608,-0.458544 0.964013,-0.387651 0.47782,0.09736 0.803203,0.491428 0.803375,0.972969 5.6e-5,0.160243 -0.02015,0.251081 -0.106763,0.48 -0.56461,1.492213 -1.484292,2.851276 -2.628328,3.884023 -1.726622,1.55866 -3.818906,2.445312 -6.123374,2.594915 -0.503144,0.03266 -0.739983,0.03219 -1.256953,-0.0025 z"
     id="path2033" />
</svg>
