<?xml version="1.0" encoding="UTF-8" standalone="no"?>
<svg
   xmlns:dc="http://purl.org/dc/elements/1.1/"
   xmlns:cc="http://creativecommons.org/ns#"
   xmlns:rdf="http://www.w3.org/1999/02/22-rdf-syntax-ns#"
   xmlns:svg="http://www.w3.org/2000/svg"
   xmlns="http://www.w3.org/2000/svg"
   xmlns:sodipodi="http://sodipodi.sourceforge.net/DTD/sodipodi-0.dtd"
   xmlns:inkscape="http://www.inkscape.org/namespaces/inkscape"
   width="24"
   height="24"
   viewBox="0 0 24 24"
   fill="none"
   stroke="currentColor"
   stroke-width="2"
   stroke-linecap="round"
   stroke-linejoin="round"
   class="feather feather-rotate-ccw"
   version="1.1"
   id="svg867"
   sodipodi:docname="rotate-ccw.svg"
   inkscape:version="1.0.2-2 (e86c870879, 2021-01-15)">
  <metadata
     id="metadata873">
    <rdf:RDF>
      <cc:Work
         rdf:about="">
        <dc:format>image/svg+xml</dc:format>
        <dc:type
           rdf:resource="http://purl.org/dc/dcmitype/StillImage" />
      </cc:Work>
    </rdf:RDF>
  </metadata>
  <defs
     id="defs871" />
  <sodipodi:namedview
     pagecolor="#ffffff"
     bordercolor="#666666"
     borderopacity="1"
     objecttolerance="10"
     gridtolerance="10"
     guidetolerance="10"
     inkscape:pageopacity="0"
     inkscape:pageshadow="2"
     inkscape:window-width="1920"
     inkscape:window-height="1017"
     id="namedview869"
     showgrid="false"
     inkscape:zoom="35.416667"
     inkscape:cx="12"
     inkscape:cy="12"
     inkscape:window-x="-8"
     inkscape:window-y="-8"
     inkscape:window-maximized="1"
     inkscape:current-layer="svg867" />
  <polyline
     points="1 4 1 10 7 10"
     id="polyline863" />
  <path
     d="M3.51 15a9 9 0 1 0 2.13-9.36L1 10"
     id="path865" />
  <path
     style="fill:#ffffff;stroke:#000000;stroke-width:0.0816378;paint-order:markers fill stroke"
     d="M 11.364706,21.977862 C 11.000356,21.948518 10.428063,21.872036 10.104593,21.809457 7.3293976,21.272565 4.9163464,19.582232 3.4380678,17.13958 3.0751968,16.539986 2.6029107,15.495113 2.53935,15.151282 2.48603,14.862849 2.611612,14.498425 2.8354179,14.292128 3.1860695,13.968909 3.6426915,13.927197 4.0465765,14.18149 c 0.1981208,0.124741 0.3050962,0.284808 0.4714037,0.705362 0.4510611,1.14063 1.044504,2.033919 1.9092726,2.873961 0.3956197,0.384307 0.7009121,0.632323 1.1256884,0.914493 2.9016568,1.927513 6.6853248,1.771259 9.4304178,-0.38945 0.36961,-0.290926 1.073679,-1.002354 1.344741,-1.358797 1.319986,-1.735761 1.884857,-3.806988 1.617087,-5.929412 C 19.641161,8.5878449 18.250633,6.4331497 16.190657,5.1798099 15.257034,4.6117706 14.294807,4.2607026 13.171765,4.0783686 12.737866,4.007922 11.60661,3.9915197 11.1147,4.0485428 10.099343,4.1662446 9.1965673,4.4393352 8.3121103,4.8963289 7.5779523,5.2756639 7.0035908,5.6974727 6.2541176,6.40771 6.0211765,6.6284564 5.3075746,7.3004389 4.668336,7.9010041 l -1.1622522,1.0919371 1.8540169,0.014118 1.8540169,0.014118 0.1725287,0.079734 c 0.193545,0.089447 0.3983952,0.2825512 0.4910428,0.4628872 0.033651,0.065501 0.075131,0.2005163 0.092178,0.3000355 0.078094,0.4559111 -0.2379447,0.9444451 -0.6973759,1.0780051 -0.1276904,0.03712 -0.5596196,0.04167 -3.3354706,0.03511 l -3.18878511,-0.0075 -0.15947186,-0.07477 C 0.37811831,10.795888 0.21220124,10.625148 0.10309412,10.394859 L 0.01411765,10.207059 0.00572593,7.1717647 C 3.0902682e-4,5.2124646 0.0075853,4.0590214 0.02625172,3.9179925 0.075754,3.5439918 0.27591572,3.2580852 0.59294118,3.1085457 0.72420359,3.0466298 0.78755989,3.0352941 1.0023529,3.0352941 c 0.2210394,0 0.2750308,0.01027 0.414779,0.078896 0.2068321,0.1015692 0.42351,0.3366582 0.5008747,0.5434339 0.057053,0.152487 0.058464,0.2032626 0.058464,2.103435 0,1.0709469 0.00685,1.9471762 0.015216,1.9471762 0.00837,0 0.7471539,-0.6892941 1.6417443,-1.5317647 C 5.4417072,4.4735468 5.6453379,4.2915855 6.1616922,3.9172572 7.4662727,2.9715089 8.9365223,2.376921 10.588235,2.1271063 c 0.569948,-0.086202 1.669833,-0.1200578 2.230589,-0.06866 2.058288,0.1886601 3.868068,0.9193274 5.490085,2.2165277 0.368449,0.2946653 1.128496,1.0542552 1.416604,1.415752 1.285184,1.6125544 2.008208,3.3719125 2.215737,5.391627 0.04992,0.485868 0.04277,1.466638 -0.01442,1.976471 -0.353865,3.154588 -2.097434,5.882151 -4.800848,7.510236 -1.177034,0.708848 -2.466118,1.156372 -3.869507,1.343356 -0.408923,0.05448 -1.54141,0.09366 -1.891765,0.06545 z"
     id="path1436" />
</svg>
